<svg xmlns="http://www.w3.org/2000/svg" viewBox="7.95 25.75 42.8 74.5">
  <g id="svgGroup" stroke-linecap="round" fill-rule="nonzero" fill="#000000" stroke="#000000" stroke-width="0.5">
      <path d="M12.200 100L12.200 100Q10.400 100 9.300 98.800Q8.200 97.600 8.200 95.900L8.200 95.900L8.200 30Q8.200 28.300 9.300 27.150Q10.400 26 12.200 26L12.200 26Q13.900 26 15.050 27.150Q16.200 28.300 16.200 30L16.200 30L16.200 95.900Q16.200 97.600 15.050 98.800Q13.900 100 12.200 100ZM45.400 48L45.400 48Q47 48 48.150 49.250Q49.300 50.500 49.300 51.800L49.300 51.800Q49.300 53.500 47.700 54.800L47.700 54.800L15.300 83.100L15 73.800L42.600 49.200Q43.800 48 45.400 48ZM46.500 99.900L46.500 99.900Q44.800 99.900 43.500 98.600L43.500 98.600L22.200 75.900L28.200 70.400L49.300 93Q50.500 94.300 50.500 96L50.500 96Q50.500 97.800 49.100 98.850Q47.700 99.900 46.500 99.900Z"/>
  </g>
</svg>